# xmcd CD database file
#
# Track frame offsets:
#	150
#	35227
#	71257
#	94217
#	108225
#	133650
#	161255
#	185165
#	192240
#	221167
#	264302
#
# Disc length: 3993 seconds
#
# Revision: 9
# Processed by: cddbd v1.5.2PL0 Copyright (c) Steve Scherf et al.
# Submitted via: CDex 1.51
#
DISCID=a00f970b
DTITLE=Jeff Buckley - Live A L'Olympia
DYEAR=2001
DGENRE=Singer-Songwriter
TTITLE0=Lover, You Should Have Come Over (Live)
TTITLE1=Dream Brother (Live)
TTITLE2=Eternal Life (Live)
TTITLE3=Kick Out The Jams (Live)
TTITLE4=Lilac Wine (Live)
TTITLE5=Grace (Live)
TTITLE6=That's All I Ask (Live)
TTITLE7=Kashmir (Live)
TTITLE8=Je N'En Connais Pas La Fin (Live)
TTITLE9=Hallelujah (Live)
TTITLE10=Feat.Alim Qasimov_What Will You Say (Live @ Classic Festival)
EXTD=YEAR: 2001
EXTT0=
EXTT1=
EXTT2=
EXTT3=
EXTT4=
EXTT5=
EXTT6=
EXTT7=
EXTT8=
EXTT9=
EXTT10=
PLAYORDER=
